<svg width="512" height="512" viewBox="0 0 512 512" fill="none" xmlns="http://www.w3.org/2000/svg">
<g clip-path="url(#clip0_1_32)">
<rect width="512" height="512" rx="96" fill="#3C096C"/>
<rect width="512" height="512" rx="96" fill="url(#paint0_linear_1_32)"/>
<path d="M149.478 321.388C146.287 316.424 144.868 310.751 145.223 304.368C145.577 297.631 149.3 291.958 156.392 287.349C161.356 284.158 166.497 282.917 171.816 283.626C177.489 283.98 182.807 286.64 187.771 291.604C197.699 302.595 208.691 311.282 220.747 317.665C233.157 324.047 248.049 327.238 265.423 327.238C272.514 326.884 279.783 325.82 287.229 324.047C294.675 321.92 301.057 318.374 306.376 313.41C311.694 308.091 314.354 300.468 314.354 290.54C314.354 281.676 311.517 274.584 305.844 269.266C300.171 263.947 292.725 259.692 283.506 256.501C274.287 252.955 264.359 249.764 253.722 246.928C242.375 243.737 230.852 240.191 219.151 236.291C207.805 232.39 197.522 227.426 188.303 221.399C179.084 215.016 171.461 206.861 165.433 196.933C159.76 187.005 156.924 174.772 156.924 160.235C156.924 143.57 161.533 129.21 170.752 117.155C180.325 105.099 192.558 95.7029 207.45 88.9661C222.697 82.2292 239.184 78.8608 256.913 78.8608C267.195 78.8608 278.01 80.2791 289.356 83.1156C300.703 85.5977 311.694 89.6752 322.331 95.3484C332.969 101.022 342.187 108.468 349.988 117.686C353.534 122.296 355.484 127.792 355.838 134.174C356.548 140.556 353.711 146.229 347.329 151.193C343.074 154.739 337.933 156.335 331.905 155.98C325.877 155.626 320.913 153.675 317.013 150.13C310.276 141.62 301.589 135.06 290.952 130.451C280.315 125.487 268.259 123.005 254.785 123.005C248.049 123.005 240.957 124.069 233.511 126.196C226.42 127.969 220.392 131.337 215.428 136.301C210.464 141.265 207.982 148.534 207.982 158.108C207.982 166.972 210.819 174.063 216.492 179.382C222.519 184.7 230.32 189.133 239.893 192.678C249.467 196.224 259.927 199.415 271.273 202.252C282.265 205.088 293.079 208.457 303.716 212.357C314.708 216.257 324.459 221.399 332.969 227.781C341.833 233.809 348.924 241.786 354.243 251.714C359.916 261.288 362.753 273.521 362.753 288.413C362.753 305.787 357.611 320.679 347.329 333.089C337.401 345.144 324.636 354.363 309.035 360.745C293.788 367.127 277.655 370.319 260.636 370.319C240.425 370.319 220.215 366.773 200.004 359.681C180.148 352.235 163.306 339.471 149.478 321.388Z" fill="white"/>
<path d="M409.865 391.909C375.424 429.013 328.226 451.721 277.74 455.479L277.71 616.719C277.709 622.366 275.564 627.802 271.708 631.928C267.853 636.054 262.576 638.563 256.942 638.948C251.308 639.333 245.738 637.565 241.358 634.002C236.977 630.438 234.113 625.344 233.343 619.75L233.135 616.719V455.479C183.85 451.819 137.651 430.094 103.398 394.469C69.1444 358.845 49.2479 311.829 47.524 262.438L47.4051 255.425V240.567C47.4068 234.92 49.552 229.484 53.4071 225.358C57.2622 221.232 62.5398 218.723 68.1736 218.338C73.8073 217.953 79.3772 219.721 83.7576 223.285C88.1381 226.848 91.0026 231.942 91.7723 237.536L91.9803 240.567V255.425C91.9769 295.694 107.544 334.404 135.424 363.459C163.305 392.514 201.341 409.663 241.575 411.32L247.994 411.439H262.852C303.12 411.442 341.83 395.875 370.885 367.994C379.334 359.887 386.776 350.921 393.123 341.292L436.028 356.667C428.676 369.246 419.923 381.074 409.865 391.909Z" fill="white"/>
<g filter="url(#filter0_d_1_32)">
<path d="M422.206 285.662C413.45 284.643 409.255 279.194 409.622 269.318L414.978 125.852C415.393 117.808 418.233 111.352 423.499 106.484C429.022 101.645 435.646 99.6762 443.373 100.576C451.099 101.476 457.093 104.915 461.357 110.893C465.62 116.872 466.9 123.808 465.198 131.701L437.823 272.603C435.91 282.299 430.705 286.652 422.206 285.662ZM409.558 370.721C402.089 369.852 396.52 367.245 392.849 362.902C389.466 358.331 388.209 352.312 389.079 344.843L389.844 338.276C390.714 330.807 393.305 325.367 397.618 321.953C402.219 318.313 408.254 316.927 415.722 317.797L420.744 318.382C428.213 319.252 433.639 321.972 437.022 326.543C440.693 330.886 442.093 336.792 441.223 344.26L440.458 350.828C439.588 358.296 436.853 363.851 432.252 367.492C427.939 370.905 422.048 372.176 414.58 371.306L409.558 370.721Z" fill="#FF6D00"/>
</g>
</g>
<defs>
<filter id="filter0_d_1_32" x="285.993" y="1.56143" width="283.648" height="476.49" filterUnits="userSpaceOnUse" color-interpolation-filters="sRGB">
<feFlood flood-opacity="0" result="BackgroundImageFix"/>
<feColorMatrix in="SourceAlpha" type="matrix" values="0 0 0 0 0 0 0 0 0 0 0 0 0 0 0 0 0 0 127 0" result="hardAlpha"/>
<feOffset dy="4"/>
<feGaussianBlur stdDeviation="50"/>
<feComposite in2="hardAlpha" operator="out"/>
<feColorMatrix type="matrix" values="0 0 0 0 1 0 0 0 0 0.625641 0 0 0 0 0.346154 0 0 0 0.14 0"/>
<feBlend mode="normal" in2="BackgroundImageFix" result="effect1_dropShadow_1_32"/>
<feBlend mode="normal" in="SourceGraphic" in2="effect1_dropShadow_1_32" result="shape"/>
</filter>
<linearGradient id="paint0_linear_1_32" x1="415.255" y1="512" x2="96.7447" y2="7.04948e-07" gradientUnits="userSpaceOnUse">
<stop stop-color="#39006E"/>
<stop offset="1" stop-color="#5E06C5"/>
</linearGradient>
<clipPath id="clip0_1_32">
<rect width="512" height="512" rx="96" fill="white"/>
</clipPath>
</defs>
</svg>
